<?xml version="1.0" standalone="no"?>
<!DOCTYPE svg PUBLIC "-//W3C//DTD SVG 20010904//EN"
 "http://www.w3.org/TR/2001/REC-SVG-20010904/DTD/svg10.dtd">
<svg version="1.0" xmlns="http://www.w3.org/2000/svg"
 width="512.000000pt" height="512.000000pt" viewBox="0 0 512.000000 512.000000"
 preserveAspectRatio="xMidYMid meet">
<metadata>
Created by potrace 1.11, written by Peter Selinger 2001-2013
</metadata>
<g transform="translate(0.000000,512.000000) scale(0.100000,-0.100000)"
fill="#000000" stroke="none">
<path d="M2379 5116 c-2 -2 -40 -6 -83 -10 -44 -4 -82 -8 -85 -10 -3 -2 -31
-7 -61 -11 -30 -3 -75 -11 -100 -17 -25 -5 -56 -12 -70 -14 -52 -10 -236 -66
-326 -100 -412 -154 -826 -454 -1084 -784 -19 -25 -37 -47 -40 -50 -7 -7 -45
-61 -105 -150 -189 -278 -327 -626 -390 -980 -46 -256 -44 -614 5 -890 161
-913 839 -1688 1730 -1977 258 -84 494 -120 789 -121 102 0 215 4 251 9 36 5
85 11 110 14 49 7 59 8 140 25 30 6 66 13 80 16 58 11 183 49 300 91 523 189
988 565 1289 1045 186 296 324 673 366 998 27 212 27 561 1 715 -3 17 -8 44
-10 60 -3 17 -9 53 -15 80 -6 28 -13 61 -15 75 -31 156 -115 389 -206 572
-335 671 -954 1167 -1680 1344 -58 14 -116 28 -130 30 -70 11 -85 14 -195 30
-44 6 -460 15 -466 10z"/>
</g>
</svg>
